<svg xmlns="http://www.w3.org/2000/svg" xmlns:xlink="http://www.w3.org/1999/xlink" width="500" zoomAndPan="magnify" viewBox="0 0 375 374.999991" height="500" preserveAspectRatio="xMidYMid meet" version="1.0"><defs><g/></defs><g fill="#ffffff" fill-opacity="1"><g transform="translate(76.476563, 200.999987)"><g><path d="M 32.257812 -26.214844 L 23.140625 -26.214844 L 17.859375 -5.660156 L 12.578125 -26.214844 L 3.230469 -26.214844 L 3.230469 0 L 9.195312 0 L 9.195312 -11.625 C 9.195312 -14.171875 9.195312 -17.589844 9.117188 -20.289062 C 9.613281 -17.589844 10.488281 -14.171875 11.207031 -11.664062 L 14.589844 0 L 20.898438 0 L 24.203125 -11.664062 C 24.960938 -14.171875 25.835938 -17.628906 26.367188 -20.328125 C 26.292969 -17.628906 26.292969 -14.171875 26.292969 -11.625 L 26.292969 0 L 32.257812 0 Z M 32.257812 -26.214844 "/></g></g></g><g fill="#ffffff" fill-opacity="1"><g transform="translate(111.01151, 200.999987)"><g><path d="M 22.683594 -5.015625 L 9.195312 -5.015625 L 9.195312 -26.214844 L 3.230469 -26.214844 L 3.230469 0 L 22.683594 0 Z M 22.683594 -5.015625 "/></g></g></g><g fill="#ffffff" fill-opacity="1"><g transform="translate(134.37674, 200.999987)"><g><path d="M 25.191406 -26.214844 L 19.261719 -26.214844 L 19.261719 -10.183594 C 19.261719 -9.460938 19.261719 -8.96875 19.1875 -8.433594 C 18.996094 -5.585938 17.289062 -3.875 14.019531 -3.875 C 10.753906 -3.875 9.042969 -5.585938 8.816406 -8.433594 C 8.777344 -8.96875 8.777344 -9.460938 8.777344 -10.183594 L 8.777344 -26.214844 L 2.851562 -26.214844 L 2.851562 -11.054688 C 2.851562 -9.839844 2.851562 -9.082031 2.925781 -7.714844 C 3.265625 -3.304688 6.34375 0.53125 14.019531 0.53125 C 21.695312 0.53125 24.773438 -3.304688 25.078125 -7.714844 C 25.191406 -9.082031 25.191406 -9.839844 25.191406 -11.054688 Z M 25.191406 -26.214844 "/></g></g></g><g fill="#ffffff" fill-opacity="1"><g transform="translate(161.313235, 200.999987)"><g><path d="M 17.933594 0 L 27.394531 -26.214844 L 21.085938 -26.214844 L 14.324219 -4.597656 L 7.675781 -26.214844 L 1.214844 -26.214844 L 10.5625 0 Z M 17.933594 0 "/></g></g></g><g fill="#ff6110" fill-opacity="1"><g transform="translate(188.355461, 200.999987)"><g><path d="M 26.597656 -26.214844 L 20.667969 -26.214844 L 20.667969 -15.199219 L 9.195312 -15.199219 L 9.195312 -26.214844 L 3.230469 -26.214844 L 3.230469 0 L 9.195312 0 L 9.195312 -10.523438 L 20.667969 -10.523438 L 20.667969 0 L 26.597656 0 Z M 26.597656 -26.214844 "/></g></g></g><g fill="#ff6110" fill-opacity="1"><g transform="translate(217.229567, 200.999987)"><g><path d="M 27.167969 0 L 27.167969 -26.214844 L 21.238281 -26.214844 L 21.238281 -14.550781 C 21.238281 -12.613281 21.277344 -9.652344 21.429688 -6.914062 L 10.867188 -26.214844 L 3.230469 -26.214844 L 3.230469 0 L 9.195312 0 L 9.195312 -11.398438 C 9.195312 -13.296875 9.15625 -15.996094 8.96875 -18.769531 L 19.226562 0 Z M 27.167969 0 "/></g></g></g><g fill="#ff6110" fill-opacity="1"><g transform="translate(246.673554, 200.999987)"><g><path d="M 22.683594 -4.671875 L 9.195312 -4.671875 L 9.195312 -10.828125 L 21.429688 -10.828125 L 21.429688 -15.464844 L 9.195312 -15.464844 L 9.195312 -21.582031 L 22.304688 -21.582031 L 22.304688 -26.214844 L 3.230469 -26.214844 L 3.230469 0 L 22.683594 0 Z M 22.683594 -4.671875 "/></g></g></g><g fill="#ff6110" fill-opacity="1"><g transform="translate(270.456698, 200.999987)"><g><path d="M 15.996094 -26.066406 C 14.667969 -26.214844 14.058594 -26.214844 12.652344 -26.214844 L 3.230469 -26.214844 L 3.230469 0 L 12.613281 0 C 14.019531 0 14.628906 0 15.957031 -0.152344 C 22.035156 -0.875 26.9375 -5.355469 26.9375 -13.449219 C 26.9375 -21.542969 22.074219 -25.378906 15.996094 -26.066406 Z M 14.515625 -4.75 C 13.640625 -4.671875 12.957031 -4.671875 11.855469 -4.671875 L 9.195312 -4.671875 L 9.195312 -21.582031 L 11.890625 -21.582031 C 12.996094 -21.582031 13.679688 -21.542969 14.550781 -21.46875 C 18.238281 -21.050781 20.667969 -18.3125 20.667969 -13.375 C 20.667969 -8.320312 18.199219 -5.167969 14.515625 -4.75 Z M 14.515625 -4.75 "/></g></g></g><g fill="#ffffff" fill-opacity="1"><g transform="translate(142.310753, 222.194356)"><g><path d="M 4.90625 -2.609375 C 4.90625 -1.765625 4.660156 -1.117188 4.171875 -0.671875 C 3.691406 -0.222656 3 0 2.09375 0 L 0.640625 0 L 0.640625 -5.125 L 2.25 -5.125 C 3.09375 -5.125 3.742188 -4.898438 4.203125 -4.453125 C 4.671875 -4.015625 4.90625 -3.398438 4.90625 -2.609375 Z M 3.765625 -2.59375 C 3.765625 -3.6875 3.28125 -4.234375 2.3125 -4.234375 L 1.734375 -4.234375 L 1.734375 -0.90625 L 2.203125 -0.90625 C 3.242188 -0.90625 3.765625 -1.46875 3.765625 -2.59375 Z M 3.765625 -2.59375 "/></g></g><g transform="translate(147.63016, 222.194356)"><g><path d="M 5.296875 -2.578125 C 5.296875 -1.722656 5.085938 -1.066406 4.671875 -0.609375 C 4.253906 -0.160156 3.648438 0.0625 2.859375 0.0625 C 2.078125 0.0625 1.472656 -0.160156 1.046875 -0.609375 C 0.628906 -1.066406 0.421875 -1.722656 0.421875 -2.578125 C 0.421875 -3.429688 0.628906 -4.082031 1.046875 -4.53125 C 1.472656 -4.988281 2.082031 -5.21875 2.875 -5.21875 C 3.65625 -5.21875 4.253906 -4.988281 4.671875 -4.53125 C 5.085938 -4.070312 5.296875 -3.421875 5.296875 -2.578125 Z M 1.5625 -2.578125 C 1.5625 -2.003906 1.671875 -1.570312 1.890625 -1.28125 C 2.109375 -0.988281 2.429688 -0.84375 2.859375 -0.84375 C 3.722656 -0.84375 4.15625 -1.421875 4.15625 -2.578125 C 4.15625 -3.734375 3.726562 -4.3125 2.875 -4.3125 C 2.4375 -4.3125 2.109375 -4.164062 1.890625 -3.875 C 1.671875 -3.582031 1.5625 -3.148438 1.5625 -2.578125 Z M 1.5625 -2.578125 "/></g></g><g transform="translate(153.349576, 222.194356)"><g><path d="M 4.828125 -5.125 L 4.828125 -1.8125 C 4.828125 -1.4375 4.738281 -1.101562 4.5625 -0.8125 C 4.394531 -0.53125 4.148438 -0.3125 3.828125 -0.15625 C 3.515625 -0.0078125 3.140625 0.0625 2.703125 0.0625 C 2.035156 0.0625 1.519531 -0.101562 1.15625 -0.4375 C 0.789062 -0.769531 0.609375 -1.234375 0.609375 -1.828125 L 0.609375 -5.125 L 1.6875 -5.125 L 1.6875 -1.984375 C 1.6875 -1.585938 1.765625 -1.296875 1.921875 -1.109375 C 2.085938 -0.929688 2.351562 -0.84375 2.71875 -0.84375 C 3.070312 -0.84375 3.328125 -0.9375 3.484375 -1.125 C 3.648438 -1.3125 3.734375 -1.601562 3.734375 -2 L 3.734375 -5.125 Z M 4.828125 -5.125 "/></g></g><g transform="translate(158.781267, 222.194356)"><g><path d="M 2.828125 -4.296875 C 2.421875 -4.296875 2.101562 -4.140625 1.875 -3.828125 C 1.644531 -3.523438 1.53125 -3.097656 1.53125 -2.546875 C 1.53125 -1.398438 1.960938 -0.828125 2.828125 -0.828125 C 3.179688 -0.828125 3.617188 -0.921875 4.140625 -1.109375 L 4.140625 -0.1875 C 3.710938 -0.0195312 3.238281 0.0625 2.71875 0.0625 C 1.976562 0.0625 1.410156 -0.160156 1.015625 -0.609375 C 0.617188 -1.054688 0.421875 -1.707031 0.421875 -2.5625 C 0.421875 -3.09375 0.515625 -3.554688 0.703125 -3.953125 C 0.898438 -4.359375 1.179688 -4.664062 1.546875 -4.875 C 1.910156 -5.09375 2.335938 -5.203125 2.828125 -5.203125 C 3.328125 -5.203125 3.828125 -5.082031 4.328125 -4.84375 L 3.96875 -3.953125 C 3.78125 -4.046875 3.585938 -4.125 3.390625 -4.1875 C 3.203125 -4.257812 3.015625 -4.296875 2.828125 -4.296875 Z M 4.703125 -6.5 L 4.703125 -6.40625 C 4.503906 -6.207031 4.320312 -6.007812 4.15625 -5.8125 C 3.988281 -5.625 3.867188 -5.472656 3.796875 -5.359375 L 2.546875 -5.359375 C 2.484375 -5.460938 2.390625 -5.59375 2.265625 -5.75 C 2.140625 -5.90625 1.9375 -6.125 1.65625 -6.40625 L 1.65625 -6.5 L 2.359375 -6.5 C 2.703125 -6.289062 2.972656 -6.085938 3.171875 -5.890625 C 3.367188 -6.085938 3.640625 -6.289062 3.984375 -6.5 Z M 4.703125 -6.5 "/></g></g><g transform="translate(163.360309, 222.194356)"><g><path d="M 5.296875 -2.578125 C 5.296875 -1.722656 5.085938 -1.066406 4.671875 -0.609375 C 4.253906 -0.160156 3.648438 0.0625 2.859375 0.0625 C 2.078125 0.0625 1.472656 -0.160156 1.046875 -0.609375 C 0.628906 -1.066406 0.421875 -1.722656 0.421875 -2.578125 C 0.421875 -3.429688 0.628906 -4.082031 1.046875 -4.53125 C 1.472656 -4.988281 2.082031 -5.21875 2.875 -5.21875 C 3.65625 -5.21875 4.253906 -4.988281 4.671875 -4.53125 C 5.085938 -4.070312 5.296875 -3.421875 5.296875 -2.578125 Z M 1.5625 -2.578125 C 1.5625 -2.003906 1.671875 -1.570312 1.890625 -1.28125 C 2.109375 -0.988281 2.429688 -0.84375 2.859375 -0.84375 C 3.722656 -0.84375 4.15625 -1.421875 4.15625 -2.578125 C 4.15625 -3.734375 3.726562 -4.3125 2.875 -4.3125 C 2.4375 -4.3125 2.109375 -4.164062 1.890625 -3.875 C 1.671875 -3.582031 1.5625 -3.148438 1.5625 -2.578125 Z M 1.5625 -2.578125 "/></g></g><g transform="translate(169.079725, 222.194356)"><g><path d="M 3.578125 -5.125 L 4.671875 -5.125 L 2.921875 0 L 1.734375 0 L 0 -5.125 L 1.09375 -5.125 L 2.0625 -2.078125 C 2.113281 -1.898438 2.164062 -1.691406 2.21875 -1.453125 C 2.28125 -1.210938 2.320312 -1.046875 2.34375 -0.953125 C 2.363281 -1.160156 2.445312 -1.535156 2.59375 -2.078125 Z M 3.578125 -5.125 "/></g></g><g transform="translate(173.749996, 222.194356)"><g><path d="M 3.78125 0 L 3.421875 -1.21875 L 1.546875 -1.21875 L 1.171875 0 L 0 0 L 1.8125 -5.15625 L 3.140625 -5.15625 L 4.953125 0 Z M 3.15625 -2.140625 C 2.8125 -3.242188 2.617188 -3.867188 2.578125 -4.015625 C 2.535156 -4.160156 2.503906 -4.273438 2.484375 -4.359375 C 2.398438 -4.054688 2.175781 -3.316406 1.8125 -2.140625 Z M 2.171875 -5.359375 L 2.171875 -5.453125 C 2.566406 -5.921875 2.835938 -6.269531 2.984375 -6.5 L 4.1875 -6.5 L 4.1875 -6.4375 C 4.0625 -6.3125 3.851562 -6.128906 3.5625 -5.890625 C 3.269531 -5.648438 3.039062 -5.472656 2.875 -5.359375 Z M 2.171875 -5.359375 "/></g></g><g transform="translate(178.707993, 222.194356)"><g><path d="M 5.203125 0 L 3.8125 0 L 1.578125 -3.875 L 1.546875 -3.875 C 1.597656 -3.195312 1.625 -2.710938 1.625 -2.421875 L 1.625 0 L 0.640625 0 L 0.640625 -5.125 L 2.015625 -5.125 L 4.25 -1.28125 L 4.265625 -1.28125 C 4.234375 -1.945312 4.21875 -2.421875 4.21875 -2.703125 L 4.21875 -5.125 L 5.203125 -5.125 Z M 5.203125 0 "/></g></g><g transform="translate(184.550218, 222.194356)"><g><path d="M 0.640625 0 L 0.640625 -5.125 L 1.734375 -5.125 L 1.734375 0 Z M 0.171875 -5.359375 L 0.171875 -5.453125 C 0.566406 -5.921875 0.835938 -6.269531 0.984375 -6.5 L 2.1875 -6.5 L 2.1875 -6.4375 C 2.0625 -6.3125 1.851562 -6.128906 1.5625 -5.890625 C 1.269531 -5.648438 1.039062 -5.472656 0.875 -5.359375 Z M 0.171875 -5.359375 "/></g></g><g transform="translate(186.929215, 222.194356)"><g/></g><g transform="translate(188.79592, 222.194356)"><g><path d="M 3.78125 0 L 3.421875 -1.21875 L 1.546875 -1.21875 L 1.171875 0 L 0 0 L 1.8125 -5.15625 L 3.140625 -5.15625 L 4.953125 0 Z M 3.15625 -2.140625 C 2.8125 -3.242188 2.617188 -3.867188 2.578125 -4.015625 C 2.535156 -4.160156 2.503906 -4.273438 2.484375 -4.359375 C 2.398438 -4.054688 2.175781 -3.316406 1.8125 -2.140625 Z M 3.15625 -2.140625 "/></g></g><g transform="translate(193.753916, 222.194356)"><g><path d="M 5.203125 0 L 3.8125 0 L 1.578125 -3.875 L 1.546875 -3.875 C 1.597656 -3.195312 1.625 -2.710938 1.625 -2.421875 L 1.625 0 L 0.640625 0 L 0.640625 -5.125 L 2.015625 -5.125 L 4.25 -1.28125 L 4.265625 -1.28125 C 4.234375 -1.945312 4.21875 -2.421875 4.21875 -2.703125 L 4.21875 -5.125 L 5.203125 -5.125 Z M 5.203125 0 "/></g></g><g transform="translate(199.596142, 222.194356)"><g><path d="M 2.59375 -2.875 L 4.625 -2.875 L 4.625 -0.21875 C 4.300781 -0.113281 3.992188 -0.0390625 3.703125 0 C 3.410156 0.0390625 3.109375 0.0625 2.796875 0.0625 C 2.023438 0.0625 1.4375 -0.160156 1.03125 -0.609375 C 0.625 -1.066406 0.421875 -1.722656 0.421875 -2.578125 C 0.421875 -3.398438 0.65625 -4.039062 1.125 -4.5 C 1.601562 -4.96875 2.257812 -5.203125 3.09375 -5.203125 C 3.625 -5.203125 4.132812 -5.097656 4.625 -4.890625 L 4.265625 -4.015625 C 3.890625 -4.203125 3.5 -4.296875 3.09375 -4.296875 C 2.625 -4.296875 2.242188 -4.140625 1.953125 -3.828125 C 1.671875 -3.515625 1.53125 -3.085938 1.53125 -2.546875 C 1.53125 -1.992188 1.644531 -1.566406 1.875 -1.265625 C 2.101562 -0.972656 2.4375 -0.828125 2.875 -0.828125 C 3.101562 -0.828125 3.332031 -0.851562 3.5625 -0.90625 L 3.5625 -1.96875 L 2.59375 -1.96875 Z M 2.59375 -2.875 "/></g></g><g transform="translate(204.799758, 222.194356)"><g><path d="M 0.640625 0 L 0.640625 -5.125 L 1.734375 -5.125 L 1.734375 -0.90625 L 3.8125 -0.90625 L 3.8125 0 Z M 0.640625 0 "/></g></g><g transform="translate(208.85949, 222.194356)"><g><path d="M 0.640625 0 L 0.640625 -5.125 L 1.734375 -5.125 L 1.734375 0 Z M 0.640625 0 "/></g></g><g transform="translate(211.238487, 222.194356)"><g><path d="M 2.828125 -4.296875 C 2.421875 -4.296875 2.101562 -4.140625 1.875 -3.828125 C 1.644531 -3.523438 1.53125 -3.097656 1.53125 -2.546875 C 1.53125 -1.398438 1.960938 -0.828125 2.828125 -0.828125 C 3.179688 -0.828125 3.617188 -0.921875 4.140625 -1.109375 L 4.140625 -0.1875 C 3.710938 -0.0195312 3.238281 0.0625 2.71875 0.0625 C 1.976562 0.0625 1.410156 -0.160156 1.015625 -0.609375 C 0.617188 -1.054688 0.421875 -1.707031 0.421875 -2.5625 C 0.421875 -3.09375 0.515625 -3.554688 0.703125 -3.953125 C 0.898438 -4.359375 1.179688 -4.664062 1.546875 -4.875 C 1.910156 -5.09375 2.335938 -5.203125 2.828125 -5.203125 C 3.328125 -5.203125 3.828125 -5.082031 4.328125 -4.84375 L 3.96875 -3.953125 C 3.78125 -4.046875 3.585938 -4.125 3.390625 -4.1875 C 3.203125 -4.257812 3.015625 -4.296875 2.828125 -4.296875 Z M 4.703125 -6.5 L 4.703125 -6.40625 C 4.503906 -6.207031 4.320312 -6.007812 4.15625 -5.8125 C 3.988281 -5.625 3.867188 -5.472656 3.796875 -5.359375 L 2.546875 -5.359375 C 2.484375 -5.460938 2.390625 -5.59375 2.265625 -5.75 C 2.140625 -5.90625 1.9375 -6.125 1.65625 -6.40625 L 1.65625 -6.5 L 2.359375 -6.5 C 2.703125 -6.289062 2.972656 -6.085938 3.171875 -5.890625 C 3.367188 -6.085938 3.640625 -6.289062 3.984375 -6.5 Z M 4.703125 -6.5 "/></g></g><g transform="translate(215.817528, 222.194356)"><g><path d="M 2.625 0 L 1.53125 0 L 1.53125 -4.21875 L 0.140625 -4.21875 L 0.140625 -5.125 L 4.015625 -5.125 L 4.015625 -4.21875 L 2.625 -4.21875 Z M 2.625 0 "/></g></g><g transform="translate(219.979017, 222.194356)"><g><path d="M 0.640625 0 L 0.640625 -5.125 L 1.734375 -5.125 L 1.734375 0 Z M 0.640625 0 "/></g></g><g transform="translate(222.358014, 222.194356)"><g><path d="M 5.203125 0 L 3.8125 0 L 1.578125 -3.875 L 1.546875 -3.875 C 1.597656 -3.195312 1.625 -2.710938 1.625 -2.421875 L 1.625 0 L 0.640625 0 L 0.640625 -5.125 L 2.015625 -5.125 L 4.25 -1.28125 L 4.265625 -1.28125 C 4.234375 -1.945312 4.21875 -2.421875 4.21875 -2.703125 L 4.21875 -5.125 L 5.203125 -5.125 Z M 5.203125 0 "/></g></g><g transform="translate(228.200239, 222.194356)"><g><path d="M 2.25 -3.015625 L 3.3125 -5.125 L 4.484375 -5.125 L 2.78125 -2 L 2.78125 0 L 1.703125 0 L 1.703125 -1.96875 L 0 -5.125 L 1.171875 -5.125 Z M 2.25 -3.015625 "/></g></g></g></svg>