<svg xmlns="http://www.w3.org/2000/svg" xmlns:xlink="http://www.w3.org/1999/xlink" width="500" zoomAndPan="magnify" viewBox="0 0 375 374.999991" height="500" preserveAspectRatio="xMidYMid meet" version="1.0"><defs><g/></defs><g fill="#ffffff" fill-opacity="1"><g transform="translate(76.476563, 200.999987)"><g><path d="M 32.257812 -26.214844 L 23.140625 -26.214844 L 17.859375 -5.660156 L 12.578125 -26.214844 L 3.230469 -26.214844 L 3.230469 0 L 9.195312 0 L 9.195312 -11.625 C 9.195312 -14.171875 9.195312 -17.589844 9.117188 -20.289062 C 9.613281 -17.589844 10.488281 -14.171875 11.207031 -11.664062 L 14.589844 0 L 20.898438 0 L 24.203125 -11.664062 C 24.960938 -14.171875 25.835938 -17.628906 26.367188 -20.328125 C 26.292969 -17.628906 26.292969 -14.171875 26.292969 -11.625 L 26.292969 0 L 32.257812 0 Z M 32.257812 -26.214844 "/></g></g></g><g fill="#ffffff" fill-opacity="1"><g transform="translate(111.01151, 200.999987)"><g><path d="M 22.683594 -5.015625 L 9.195312 -5.015625 L 9.195312 -26.214844 L 3.230469 -26.214844 L 3.230469 0 L 22.683594 0 Z M 22.683594 -5.015625 "/></g></g></g><g fill="#ffffff" fill-opacity="1"><g transform="translate(134.37674, 200.999987)"><g><path d="M 25.191406 -26.214844 L 19.261719 -26.214844 L 19.261719 -10.183594 C 19.261719 -9.460938 19.261719 -8.96875 19.1875 -8.433594 C 18.996094 -5.585938 17.289062 -3.875 14.019531 -3.875 C 10.753906 -3.875 9.042969 -5.585938 8.816406 -8.433594 C 8.777344 -8.96875 8.777344 -9.460938 8.777344 -10.183594 L 8.777344 -26.214844 L 2.851562 -26.214844 L 2.851562 -11.054688 C 2.851562 -9.839844 2.851562 -9.082031 2.925781 -7.714844 C 3.265625 -3.304688 6.34375 0.53125 14.019531 0.53125 C 21.695312 0.53125 24.773438 -3.304688 25.078125 -7.714844 C 25.191406 -9.082031 25.191406 -9.839844 25.191406 -11.054688 Z M 25.191406 -26.214844 "/></g></g></g><g fill="#ffffff" fill-opacity="1"><g transform="translate(161.313235, 200.999987)"><g><path d="M 17.933594 0 L 27.394531 -26.214844 L 21.085938 -26.214844 L 14.324219 -4.597656 L 7.675781 -26.214844 L 1.214844 -26.214844 L 10.5625 0 Z M 17.933594 0 "/></g></g></g><g fill="#ff6110" fill-opacity="1"><g transform="translate(188.355461, 200.999987)"><g><path d="M 26.597656 -26.214844 L 20.667969 -26.214844 L 20.667969 -15.199219 L 9.195312 -15.199219 L 9.195312 -26.214844 L 3.230469 -26.214844 L 3.230469 0 L 9.195312 0 L 9.195312 -10.523438 L 20.667969 -10.523438 L 20.667969 0 L 26.597656 0 Z M 26.597656 -26.214844 "/></g></g></g><g fill="#ff6110" fill-opacity="1"><g transform="translate(217.229567, 200.999987)"><g><path d="M 27.167969 0 L 27.167969 -26.214844 L 21.238281 -26.214844 L 21.238281 -14.550781 C 21.238281 -12.613281 21.277344 -9.652344 21.429688 -6.914062 L 10.867188 -26.214844 L 3.230469 -26.214844 L 3.230469 0 L 9.195312 0 L 9.195312 -11.398438 C 9.195312 -13.296875 9.15625 -15.996094 8.96875 -18.769531 L 19.226562 0 Z M 27.167969 0 "/></g></g></g><g fill="#ff6110" fill-opacity="1"><g transform="translate(246.673554, 200.999987)"><g><path d="M 22.683594 -4.671875 L 9.195312 -4.671875 L 9.195312 -10.828125 L 21.429688 -10.828125 L 21.429688 -15.464844 L 9.195312 -15.464844 L 9.195312 -21.582031 L 22.304688 -21.582031 L 22.304688 -26.214844 L 3.230469 -26.214844 L 3.230469 0 L 22.683594 0 Z M 22.683594 -4.671875 "/></g></g></g><g fill="#ff6110" fill-opacity="1"><g transform="translate(270.456698, 200.999987)"><g><path d="M 15.996094 -26.066406 C 14.667969 -26.214844 14.058594 -26.214844 12.652344 -26.214844 L 3.230469 -26.214844 L 3.230469 0 L 12.613281 0 C 14.019531 0 14.628906 0 15.957031 -0.152344 C 22.035156 -0.875 26.9375 -5.355469 26.9375 -13.449219 C 26.9375 -21.542969 22.074219 -25.378906 15.996094 -26.066406 Z M 14.515625 -4.75 C 13.640625 -4.671875 12.957031 -4.671875 11.855469 -4.671875 L 9.195312 -4.671875 L 9.195312 -21.582031 L 11.890625 -21.582031 C 12.996094 -21.582031 13.679688 -21.542969 14.550781 -21.46875 C 18.238281 -21.050781 20.667969 -18.3125 20.667969 -13.375 C 20.667969 -8.320312 18.199219 -5.167969 14.515625 -4.75 Z M 14.515625 -4.75 "/></g></g></g></svg>