<svg xmlns="http://www.w3.org/2000/svg" xmlns:xlink="http://www.w3.org/1999/xlink" width="500" zoomAndPan="magnify" viewBox="0 0 375 374.999991" height="500" preserveAspectRatio="xMidYMid meet" version="1.0"><defs><g/><clipPath id="id1"><path d="M 31.710938 74 L 58 74 L 58 125 L 31.710938 125 Z M 31.710938 74 " clip-rule="nonzero"/></clipPath><clipPath id="id2"><path d="M 58 136 L 65 136 L 65 237.777344 L 58 237.777344 Z M 58 136 " clip-rule="nonzero"/></clipPath><clipPath id="id3"><path d="M 102 101 L 204.210938 101 L 204.210938 107 L 102 107 Z M 102 101 " clip-rule="nonzero"/></clipPath><clipPath id="id4"><path d="M 334 245 L 360.1875 245 L 360.1875 297 L 334 297 Z M 334 245 " clip-rule="nonzero"/></clipPath><clipPath id="id5"><path d="M 327 132.917969 L 334 132.917969 L 334 235 L 327 235 Z M 327 132.917969 " clip-rule="nonzero"/></clipPath><clipPath id="id6"><path d="M 187.921875 263 L 290 263 L 290 269 L 187.921875 269 Z M 187.921875 263 " clip-rule="nonzero"/></clipPath></defs><path fill="#ffffff" d="M 71.164062 124.785156 L 85.84375 124.785156 C 88.867188 124.785156 91.320312 122.328125 91.320312 119.296875 L 91.320312 104.582031 C 91.320312 101.550781 88.867188 99.09375 85.84375 99.09375 L 75.140625 99.09375 C 75.140625 91.515625 80.367188 85.167969 87.398438 83.457031 C 89.507812 82.945312 90.980469 81.039062 90.980469 78.867188 C 90.980469 75.851562 88.1875 73.527344 85.261719 74.226562 C 74.035156 76.910156 65.6875 87.019531 65.6875 99.09375 L 65.6875 119.296875 C 65.6875 122.328125 68.140625 124.785156 71.164062 124.785156 " fill-opacity="1" fill-rule="nonzero"/><g clip-path="url(#id1)"><path fill="#ffffff" d="M 37.214844 124.785156 L 51.898438 124.785156 C 54.921875 124.785156 57.371094 122.328125 57.371094 119.296875 L 57.371094 104.582031 C 57.371094 101.550781 54.921875 99.09375 51.898438 99.09375 L 41.195312 99.09375 C 41.195312 91.53125 46.394531 85.199219 53.40625 83.46875 C 55.507812 82.953125 56.972656 81.050781 56.972656 78.882812 C 56.972656 75.863281 54.179688 73.535156 51.25 74.242188 C 40.058594 76.949219 31.742188 87.042969 31.742188 99.09375 L 31.742188 119.296875 C 31.742188 122.328125 34.191406 124.785156 37.214844 124.785156 " fill-opacity="1" fill-rule="nonzero"/></g><g clip-path="url(#id2)"><path fill="#ffffff" d="M 64.144531 237.785156 L 58.917969 237.785156 L 58.917969 136.289062 L 64.144531 136.289062 L 64.144531 237.785156 " fill-opacity="1" fill-rule="nonzero"/></g><g clip-path="url(#id3)"><path fill="#ffffff" d="M 204.199219 106.832031 L 102.933594 106.832031 L 102.933594 101.597656 L 204.199219 101.597656 L 204.199219 106.832031 " fill-opacity="1" fill-rule="nonzero"/></g><g fill="#000000" fill-opacity="1"><g transform="translate(187.499992, 194.624987)"><g/></g></g><g fill="#ffffff" fill-opacity="1"><g transform="translate(92.501564, 162.535917)"><g><path d="M 11.75 0 L 4.34375 -8.21875 L 4.34375 0 L 1.984375 0 L 1.984375 -18 L 4.34375 -18 L 4.34375 -9.65625 L 11.78125 -18 L 14.75 -18 L 6.59375 -8.984375 L 14.828125 0 Z M 11.75 0 "/></g></g></g><g fill="#ffffff" fill-opacity="1"><g transform="translate(107.972568, 162.535917)"><g><path d="M 8.15625 0.234375 C 6.832031 0.234375 5.628906 -0.0664062 4.546875 -0.671875 C 3.472656 -1.273438 2.628906 -2.128906 2.015625 -3.234375 C 1.410156 -4.347656 1.109375 -5.640625 1.109375 -7.109375 C 1.109375 -8.546875 1.421875 -9.820312 2.046875 -10.9375 C 2.679688 -12.050781 3.539062 -12.90625 4.625 -13.5 C 5.707031 -14.09375 6.921875 -14.390625 8.265625 -14.390625 C 9.609375 -14.390625 10.820312 -14.09375 11.90625 -13.5 C 12.988281 -12.90625 13.84375 -12.054688 14.46875 -10.953125 C 15.101562 -9.847656 15.421875 -8.566406 15.421875 -7.109375 C 15.421875 -5.640625 15.097656 -4.347656 14.453125 -3.234375 C 13.804688 -2.128906 12.929688 -1.273438 11.828125 -0.671875 C 10.722656 -0.0664062 9.5 0.234375 8.15625 0.234375 Z M 8.15625 -1.828125 C 9 -1.828125 9.789062 -2.023438 10.53125 -2.421875 C 11.28125 -2.816406 11.878906 -3.410156 12.328125 -4.203125 C 12.785156 -4.992188 13.015625 -5.960938 13.015625 -7.109375 C 13.015625 -8.242188 12.789062 -9.207031 12.34375 -10 C 11.894531 -10.789062 11.304688 -11.378906 10.578125 -11.765625 C 9.859375 -12.148438 9.078125 -12.34375 8.234375 -12.34375 C 7.378906 -12.34375 6.59375 -12.148438 5.875 -11.765625 C 5.15625 -11.378906 4.582031 -10.789062 4.15625 -10 C 3.726562 -9.207031 3.515625 -8.242188 3.515625 -7.109375 C 3.515625 -5.953125 3.722656 -4.976562 4.140625 -4.1875 C 4.566406 -3.394531 5.128906 -2.800781 5.828125 -2.40625 C 6.535156 -2.019531 7.3125 -1.828125 8.15625 -1.828125 Z M 8.15625 -1.828125 "/></g></g></g><g fill="#ffffff" fill-opacity="1"><g transform="translate(124.502528, 162.535917)"><g><path d="M 4.34375 -19.109375 L 4.34375 0 L 1.984375 0 L 1.984375 -19.109375 Z M 4.34375 -19.109375 "/></g></g></g><g fill="#ffffff" fill-opacity="1"><g transform="translate(130.85623, 162.535917)"><g><path d="M 3.203125 -16.453125 C 2.753906 -16.453125 2.375 -16.601562 2.0625 -16.90625 C 1.75 -17.21875 1.59375 -17.597656 1.59375 -18.046875 C 1.59375 -18.492188 1.75 -18.875 2.0625 -19.1875 C 2.375 -19.5 2.753906 -19.65625 3.203125 -19.65625 C 3.628906 -19.65625 3.992188 -19.5 4.296875 -19.1875 C 4.597656 -18.875 4.75 -18.492188 4.75 -18.046875 C 4.75 -17.597656 4.597656 -17.21875 4.296875 -16.90625 C 3.992188 -16.601562 3.628906 -16.453125 3.203125 -16.453125 Z M 4.34375 -14.15625 L 4.34375 0 L 1.984375 0 L 1.984375 -14.15625 Z M 4.34375 -14.15625 "/></g></g></g><g fill="#ffffff" fill-opacity="1"><g transform="translate(137.209932, 162.535917)"><g><path d="M 9.890625 0 L 4.34375 -6.25 L 4.34375 0 L 1.984375 0 L 1.984375 -19.109375 L 4.34375 -19.109375 L 4.34375 -7.875 L 9.78125 -14.15625 L 13.0625 -14.15625 L 6.40625 -7.109375 L 13.09375 0 Z M 9.890625 0 "/></g></g></g><g fill="#ffffff" fill-opacity="1"><g transform="translate(150.511387, 162.535917)"><g/></g></g><g fill="#ff6110" fill-opacity="1"><g transform="translate(157.399997, 162.535917)"><g><path d="M 3.25 -16.453125 C 2.800781 -16.453125 2.425781 -16.601562 2.125 -16.90625 C 1.820312 -17.21875 1.671875 -17.597656 1.671875 -18.046875 C 1.671875 -18.492188 1.820312 -18.875 2.125 -19.1875 C 2.425781 -19.5 2.800781 -19.65625 3.25 -19.65625 C 3.695312 -19.65625 4.070312 -19.5 4.375 -19.1875 C 4.675781 -18.875 4.828125 -18.492188 4.828125 -18.046875 C 4.828125 -17.597656 4.675781 -17.21875 4.375 -16.90625 C 4.070312 -16.601562 3.695312 -16.453125 3.25 -16.453125 Z M 4.421875 3.078125 C 4.421875 4.328125 4.097656 5.242188 3.453125 5.828125 C 2.816406 6.421875 1.890625 6.71875 0.671875 6.71875 L -0.703125 6.71875 L -0.703125 4.71875 L 0.28125 4.71875 C 0.9375 4.71875 1.394531 4.585938 1.65625 4.328125 C 1.925781 4.078125 2.0625 3.640625 2.0625 3.015625 L 2.0625 -14.15625 L 4.421875 -14.15625 Z M 4.421875 3.078125 "/></g></g></g><g fill="#ff6110" fill-opacity="1"><g transform="translate(163.805358, 162.535917)"><g><path d="M 1.109375 -7.125 C 1.109375 -8.570312 1.398438 -9.84375 1.984375 -10.9375 C 2.566406 -12.03125 3.367188 -12.878906 4.390625 -13.484375 C 5.421875 -14.085938 6.566406 -14.390625 7.828125 -14.390625 C 9.066406 -14.390625 10.140625 -14.117188 11.046875 -13.578125 C 11.960938 -13.046875 12.644531 -12.378906 13.09375 -11.578125 L 13.09375 -14.15625 L 15.46875 -14.15625 L 15.46875 0 L 13.09375 0 L 13.09375 -2.640625 C 12.625 -1.804688 11.929688 -1.117188 11.015625 -0.578125 C 10.097656 -0.0351562 9.023438 0.234375 7.796875 0.234375 C 6.546875 0.234375 5.410156 -0.0703125 4.390625 -0.6875 C 3.367188 -1.3125 2.566406 -2.179688 1.984375 -3.296875 C 1.398438 -4.421875 1.109375 -5.695312 1.109375 -7.125 Z M 13.09375 -7.109375 C 13.09375 -8.171875 12.875 -9.097656 12.4375 -9.890625 C 12.007812 -10.679688 11.429688 -11.285156 10.703125 -11.703125 C 9.972656 -12.128906 9.171875 -12.34375 8.296875 -12.34375 C 7.410156 -12.34375 6.601562 -12.132812 5.875 -11.71875 C 5.15625 -11.3125 4.582031 -10.710938 4.15625 -9.921875 C 3.726562 -9.128906 3.515625 -8.195312 3.515625 -7.125 C 3.515625 -6.039062 3.726562 -5.097656 4.15625 -4.296875 C 4.582031 -3.492188 5.15625 -2.878906 5.875 -2.453125 C 6.601562 -2.035156 7.410156 -1.828125 8.296875 -1.828125 C 9.171875 -1.828125 9.972656 -2.035156 10.703125 -2.453125 C 11.429688 -2.878906 12.007812 -3.492188 12.4375 -4.296875 C 12.875 -5.097656 13.09375 -6.035156 13.09375 -7.109375 Z M 13.09375 -7.109375 "/></g></g></g><g fill="#ff6110" fill-opacity="1"><g transform="translate(181.265128, 162.535917)"><g><path d="M 3.75 -1.9375 L 10.6875 -1.9375 L 10.6875 0 L 1.0625 0 L 1.0625 -1.9375 L 7.921875 -12.25 L 1.109375 -12.25 L 1.109375 -14.15625 L 10.640625 -14.15625 L 10.640625 -12.25 Z M 3.75 -1.9375 "/></g></g></g><g fill="#ff6110" fill-opacity="1"><g transform="translate(193.016893, 162.535917)"><g><path d="M 14.171875 -14.15625 L 5.65625 6.65625 L 3.234375 6.65625 L 6.015625 -0.15625 L 0.3125 -14.15625 L 2.921875 -14.15625 L 7.359375 -2.6875 L 11.75 -14.15625 Z M 14.171875 -14.15625 "/></g></g></g><g fill="#ff6110" fill-opacity="1"><g transform="translate(207.558087, 162.535917)"><g><path d="M 9.890625 0 L 4.34375 -6.25 L 4.34375 0 L 1.984375 0 L 1.984375 -19.109375 L 4.34375 -19.109375 L 4.34375 -7.875 L 9.78125 -14.15625 L 13.0625 -14.15625 L 6.40625 -7.109375 L 13.09375 0 Z M 9.890625 0 "/></g></g></g><g fill="#ff6110" fill-opacity="1"><g transform="translate(220.859542, 162.535917)"><g><path d="M 14.546875 -14.15625 L 14.546875 0 L 12.1875 0 L 12.1875 -2.09375 C 11.738281 -1.363281 11.113281 -0.796875 10.3125 -0.390625 C 9.519531 0.00390625 8.640625 0.203125 7.671875 0.203125 C 6.566406 0.203125 5.578125 -0.0195312 4.703125 -0.46875 C 3.828125 -0.925781 3.132812 -1.613281 2.625 -2.53125 C 2.113281 -3.445312 1.859375 -4.554688 1.859375 -5.859375 L 1.859375 -14.15625 L 4.1875 -14.15625 L 4.1875 -6.171875 C 4.1875 -4.773438 4.535156 -3.703125 5.234375 -2.953125 C 5.941406 -2.203125 6.910156 -1.828125 8.140625 -1.828125 C 9.390625 -1.828125 10.375 -2.210938 11.09375 -2.984375 C 11.820312 -3.765625 12.1875 -4.894531 12.1875 -6.375 L 12.1875 -14.15625 Z M 11.0625 -18.390625 C 11.0625 -17.566406 10.796875 -16.90625 10.265625 -16.40625 C 9.742188 -15.914062 9.085938 -15.671875 8.296875 -15.671875 C 7.515625 -15.671875 6.859375 -15.921875 6.328125 -16.421875 C 5.796875 -16.921875 5.53125 -17.578125 5.53125 -18.390625 C 5.53125 -19.203125 5.796875 -19.859375 6.328125 -20.359375 C 6.859375 -20.859375 7.515625 -21.109375 8.296875 -21.109375 C 9.085938 -21.109375 9.742188 -20.859375 10.265625 -20.359375 C 10.796875 -19.867188 11.0625 -19.210938 11.0625 -18.390625 Z M 9.6875 -18.421875 C 9.6875 -18.847656 9.550781 -19.191406 9.28125 -19.453125 C 9.019531 -19.722656 8.691406 -19.859375 8.296875 -19.859375 C 7.898438 -19.859375 7.566406 -19.722656 7.296875 -19.453125 C 7.023438 -19.191406 6.890625 -18.847656 6.890625 -18.421875 C 6.890625 -17.984375 7.023438 -17.625 7.296875 -17.34375 C 7.566406 -17.070312 7.898438 -16.9375 8.296875 -16.9375 C 8.691406 -16.9375 9.019531 -17.070312 9.28125 -17.34375 C 9.550781 -17.625 9.6875 -17.984375 9.6875 -18.421875 Z M 9.6875 -18.421875 "/></g></g></g><g fill="#ffffff" fill-opacity="1"><g transform="translate(237.380461, 162.535917)"><g/></g></g><g fill="#ffffff" fill-opacity="1"><g transform="translate(244.276556, 162.535917)"><g><path d="M 3.75 -1.9375 L 10.6875 -1.9375 L 10.6875 0 L 1.0625 0 L 1.0625 -1.9375 L 7.921875 -12.25 L 1.109375 -12.25 L 1.109375 -14.15625 L 10.640625 -14.15625 L 10.640625 -12.25 Z M 3.75 -1.9375 "/></g></g></g><g fill="#ffffff" fill-opacity="1"><g transform="translate(256.028321, 162.535917)"><g><path d="M 8.890625 -14.40625 C 10.609375 -14.40625 12 -13.882812 13.0625 -12.84375 C 14.132812 -11.800781 14.671875 -10.300781 14.671875 -8.34375 L 14.671875 0 L 12.34375 0 L 12.34375 -8 C 12.34375 -9.414062 11.988281 -10.5 11.28125 -11.25 C 10.582031 -12 9.617188 -12.375 8.390625 -12.375 C 7.148438 -12.375 6.164062 -11.984375 5.4375 -11.203125 C 4.707031 -10.429688 4.34375 -9.304688 4.34375 -7.828125 L 4.34375 0 L 1.984375 0 L 1.984375 -14.15625 L 4.34375 -14.15625 L 4.34375 -12.140625 C 4.800781 -12.859375 5.429688 -13.414062 6.234375 -13.8125 C 7.035156 -14.207031 7.921875 -14.40625 8.890625 -14.40625 Z M 8.890625 -14.40625 "/></g></g></g><g fill="#ffffff" fill-opacity="1"><g transform="translate(272.558281, 162.535917)"><g><path d="M 1.109375 -7.125 C 1.109375 -8.570312 1.398438 -9.84375 1.984375 -10.9375 C 2.566406 -12.03125 3.367188 -12.878906 4.390625 -13.484375 C 5.421875 -14.085938 6.566406 -14.390625 7.828125 -14.390625 C 9.066406 -14.390625 10.140625 -14.117188 11.046875 -13.578125 C 11.960938 -13.046875 12.644531 -12.378906 13.09375 -11.578125 L 13.09375 -14.15625 L 15.46875 -14.15625 L 15.46875 0 L 13.09375 0 L 13.09375 -2.640625 C 12.625 -1.804688 11.929688 -1.117188 11.015625 -0.578125 C 10.097656 -0.0351562 9.023438 0.234375 7.796875 0.234375 C 6.546875 0.234375 5.410156 -0.0703125 4.390625 -0.6875 C 3.367188 -1.3125 2.566406 -2.179688 1.984375 -3.296875 C 1.398438 -4.421875 1.109375 -5.695312 1.109375 -7.125 Z M 13.09375 -7.109375 C 13.09375 -8.171875 12.875 -9.097656 12.4375 -9.890625 C 12.007812 -10.679688 11.429688 -11.285156 10.703125 -11.703125 C 9.972656 -12.128906 9.171875 -12.34375 8.296875 -12.34375 C 7.410156 -12.34375 6.601562 -12.132812 5.875 -11.71875 C 5.15625 -11.3125 4.582031 -10.710938 4.15625 -9.921875 C 3.726562 -9.128906 3.515625 -8.195312 3.515625 -7.125 C 3.515625 -6.039062 3.726562 -5.097656 4.15625 -4.296875 C 4.582031 -3.492188 5.15625 -2.878906 5.875 -2.453125 C 6.601562 -2.035156 7.410156 -1.828125 8.296875 -1.828125 C 9.171875 -1.828125 9.972656 -2.035156 10.703125 -2.453125 C 11.429688 -2.878906 12.007812 -3.492188 12.4375 -4.296875 C 12.875 -5.097656 13.09375 -6.035156 13.09375 -7.109375 Z M 11.265625 -18.15625 L 5.765625 -15.21875 L 5.765625 -16.96875 L 11.265625 -20.203125 Z M 11.265625 -18.15625 "/></g></g></g><g fill="#ffffff" fill-opacity="1"><g transform="translate(290.01805, 162.535917)"><g><path d="M 7 0.234375 C 5.914062 0.234375 4.941406 0.0507812 4.078125 -0.3125 C 3.222656 -0.6875 2.546875 -1.203125 2.046875 -1.859375 C 1.546875 -2.523438 1.269531 -3.289062 1.21875 -4.15625 L 3.640625 -4.15625 C 3.710938 -3.445312 4.046875 -2.867188 4.640625 -2.421875 C 5.234375 -1.972656 6.007812 -1.75 6.96875 -1.75 C 7.863281 -1.75 8.566406 -1.945312 9.078125 -2.34375 C 9.597656 -2.738281 9.859375 -3.238281 9.859375 -3.84375 C 9.859375 -4.46875 9.582031 -4.929688 9.03125 -5.234375 C 8.488281 -5.535156 7.640625 -5.832031 6.484375 -6.125 C 5.429688 -6.394531 4.570312 -6.671875 3.90625 -6.953125 C 3.25 -7.242188 2.679688 -7.664062 2.203125 -8.21875 C 1.734375 -8.78125 1.5 -9.519531 1.5 -10.4375 C 1.5 -11.15625 1.710938 -11.816406 2.140625 -12.421875 C 2.578125 -13.023438 3.191406 -13.503906 3.984375 -13.859375 C 4.773438 -14.210938 5.675781 -14.390625 6.6875 -14.390625 C 8.257812 -14.390625 9.523438 -13.992188 10.484375 -13.203125 C 11.453125 -12.410156 11.96875 -11.320312 12.03125 -9.9375 L 9.6875 -9.9375 C 9.632812 -10.675781 9.335938 -11.269531 8.796875 -11.71875 C 8.253906 -12.164062 7.523438 -12.390625 6.609375 -12.390625 C 5.765625 -12.390625 5.09375 -12.207031 4.59375 -11.84375 C 4.09375 -11.488281 3.84375 -11.019531 3.84375 -10.4375 C 3.84375 -9.96875 3.992188 -9.582031 4.296875 -9.28125 C 4.597656 -8.976562 4.976562 -8.738281 5.4375 -8.5625 C 5.894531 -8.382812 6.523438 -8.179688 7.328125 -7.953125 C 8.347656 -7.679688 9.175781 -7.410156 9.8125 -7.140625 C 10.445312 -6.867188 10.992188 -6.46875 11.453125 -5.9375 C 11.910156 -5.40625 12.148438 -4.707031 12.171875 -3.84375 C 12.171875 -3.070312 11.953125 -2.375 11.515625 -1.75 C 11.085938 -1.132812 10.476562 -0.648438 9.6875 -0.296875 C 8.90625 0.0546875 8.007812 0.234375 7 0.234375 Z M 10.59375 -17.53125 L 7.03125 -15.421875 L 3.4375 -17.53125 L 3.4375 -19.390625 L 7.03125 -17.203125 L 10.59375 -19.390625 Z M 10.59375 -17.53125 "/></g></g></g><g fill="#ffffff" fill-opacity="1"><g transform="translate(303.5003, 162.535917)"><g><path d="M 4.421875 -3.25 L 1.53125 3.6875 L -0.046875 3.6875 L 1.828125 -3.25 Z M 4.421875 -3.25 "/></g></g></g><g fill="#ffffff" fill-opacity="1"><g transform="translate(139.76328, 198.535914)"><g><path d="M 4.859375 -12.21875 L 4.859375 -3.875 C 4.859375 -3.1875 5.003906 -2.695312 5.296875 -2.40625 C 5.585938 -2.125 6.09375 -1.984375 6.8125 -1.984375 L 8.546875 -1.984375 L 8.546875 0 L 6.4375 0 C 5.125 0 4.140625 -0.300781 3.484375 -0.90625 C 2.828125 -1.507812 2.5 -2.5 2.5 -3.875 L 2.5 -12.21875 L 0.671875 -12.21875 L 0.671875 -14.15625 L 2.5 -14.15625 L 2.5 -17.71875 L 4.859375 -17.71875 L 4.859375 -14.15625 L 8.546875 -14.15625 L 8.546875 -12.21875 Z M 4.859375 -12.21875 "/></g></g></g><g fill="#ffffff" fill-opacity="1"><g transform="translate(149.164692, 198.535914)"><g><path d="M 8.15625 0.234375 C 6.832031 0.234375 5.628906 -0.0664062 4.546875 -0.671875 C 3.472656 -1.273438 2.628906 -2.128906 2.015625 -3.234375 C 1.410156 -4.347656 1.109375 -5.640625 1.109375 -7.109375 C 1.109375 -8.546875 1.421875 -9.820312 2.046875 -10.9375 C 2.679688 -12.050781 3.539062 -12.90625 4.625 -13.5 C 5.707031 -14.09375 6.921875 -14.390625 8.265625 -14.390625 C 9.609375 -14.390625 10.820312 -14.09375 11.90625 -13.5 C 12.988281 -12.90625 13.84375 -12.054688 14.46875 -10.953125 C 15.101562 -9.847656 15.421875 -8.566406 15.421875 -7.109375 C 15.421875 -5.640625 15.097656 -4.347656 14.453125 -3.234375 C 13.804688 -2.128906 12.929688 -1.273438 11.828125 -0.671875 C 10.722656 -0.0664062 9.5 0.234375 8.15625 0.234375 Z M 8.15625 -1.828125 C 9 -1.828125 9.789062 -2.023438 10.53125 -2.421875 C 11.28125 -2.816406 11.878906 -3.410156 12.328125 -4.203125 C 12.785156 -4.992188 13.015625 -5.960938 13.015625 -7.109375 C 13.015625 -8.242188 12.789062 -9.207031 12.34375 -10 C 11.894531 -10.789062 11.304688 -11.378906 10.578125 -11.765625 C 9.859375 -12.148438 9.078125 -12.34375 8.234375 -12.34375 C 7.378906 -12.34375 6.59375 -12.148438 5.875 -11.765625 C 5.15625 -11.378906 4.582031 -10.789062 4.15625 -10 C 3.726562 -9.207031 3.515625 -8.242188 3.515625 -7.109375 C 3.515625 -5.953125 3.722656 -4.976562 4.140625 -4.1875 C 4.566406 -3.394531 5.128906 -2.800781 5.828125 -2.40625 C 6.535156 -2.019531 7.3125 -1.828125 8.15625 -1.828125 Z M 8.15625 -1.828125 "/></g></g></g><g fill="#ffffff" fill-opacity="1"><g transform="translate(165.694652, 198.535914)"><g><path d="M 4.34375 -19.109375 L 4.34375 0 L 1.984375 0 L 1.984375 -19.109375 Z M 4.34375 -19.109375 "/></g></g></g><g fill="#ffffff" fill-opacity="1"><g transform="translate(172.048354, 198.535914)"><g><path d="M 3.203125 -16.453125 C 2.753906 -16.453125 2.375 -16.601562 2.0625 -16.90625 C 1.75 -17.21875 1.59375 -17.597656 1.59375 -18.046875 C 1.59375 -18.492188 1.75 -18.875 2.0625 -19.1875 C 2.375 -19.5 2.753906 -19.65625 3.203125 -19.65625 C 3.628906 -19.65625 3.992188 -19.5 4.296875 -19.1875 C 4.597656 -18.875 4.75 -18.492188 4.75 -18.046875 C 4.75 -17.597656 4.597656 -17.21875 4.296875 -16.90625 C 3.992188 -16.601562 3.628906 -16.453125 3.203125 -16.453125 Z M 4.34375 -14.15625 L 4.34375 0 L 1.984375 0 L 1.984375 -14.15625 Z M 4.34375 -14.15625 "/></g></g></g><g fill="#ffffff" fill-opacity="1"><g transform="translate(178.402056, 198.535914)"><g><path d="M 9.890625 0 L 4.34375 -6.25 L 4.34375 0 L 1.984375 0 L 1.984375 -19.109375 L 4.34375 -19.109375 L 4.34375 -7.875 L 9.78125 -14.15625 L 13.0625 -14.15625 L 6.40625 -7.109375 L 13.09375 0 Z M 9.890625 0 "/></g></g></g><g fill="#ffffff" fill-opacity="1"><g transform="translate(191.703512, 198.535914)"><g><path d="M 4.34375 -11.859375 C 4.75 -12.660156 5.332031 -13.285156 6.09375 -13.734375 C 6.863281 -14.179688 7.800781 -14.40625 8.90625 -14.40625 L 8.90625 -11.984375 L 8.296875 -11.984375 C 5.660156 -11.984375 4.34375 -10.554688 4.34375 -7.703125 L 4.34375 0 L 1.984375 0 L 1.984375 -14.15625 L 4.34375 -14.15625 Z M 4.34375 -11.859375 "/></g></g></g><g fill="#ffffff" fill-opacity="1"><g transform="translate(201.337376, 198.535914)"><g><path d="M 1.109375 -7.125 C 1.109375 -8.570312 1.398438 -9.84375 1.984375 -10.9375 C 2.566406 -12.03125 3.367188 -12.878906 4.390625 -13.484375 C 5.421875 -14.085938 6.566406 -14.390625 7.828125 -14.390625 C 9.066406 -14.390625 10.140625 -14.117188 11.046875 -13.578125 C 11.960938 -13.046875 12.644531 -12.378906 13.09375 -11.578125 L 13.09375 -14.15625 L 15.46875 -14.15625 L 15.46875 0 L 13.09375 0 L 13.09375 -2.640625 C 12.625 -1.804688 11.929688 -1.117188 11.015625 -0.578125 C 10.097656 -0.0351562 9.023438 0.234375 7.796875 0.234375 C 6.546875 0.234375 5.410156 -0.0703125 4.390625 -0.6875 C 3.367188 -1.3125 2.566406 -2.179688 1.984375 -3.296875 C 1.398438 -4.421875 1.109375 -5.695312 1.109375 -7.125 Z M 13.09375 -7.109375 C 13.09375 -8.171875 12.875 -9.097656 12.4375 -9.890625 C 12.007812 -10.679688 11.429688 -11.285156 10.703125 -11.703125 C 9.972656 -12.128906 9.171875 -12.34375 8.296875 -12.34375 C 7.410156 -12.34375 6.601562 -12.132812 5.875 -11.71875 C 5.15625 -11.3125 4.582031 -10.710938 4.15625 -9.921875 C 3.726562 -9.128906 3.515625 -8.195312 3.515625 -7.125 C 3.515625 -6.039062 3.726562 -5.097656 4.15625 -4.296875 C 4.582031 -3.492188 5.15625 -2.878906 5.875 -2.453125 C 6.601562 -2.035156 7.410156 -1.828125 8.296875 -1.828125 C 9.171875 -1.828125 9.972656 -2.035156 10.703125 -2.453125 C 11.429688 -2.878906 12.007812 -3.492188 12.4375 -4.296875 C 12.875 -5.097656 13.09375 -6.035156 13.09375 -7.109375 Z M 11.265625 -18.15625 L 5.765625 -15.21875 L 5.765625 -16.96875 L 11.265625 -20.203125 Z M 11.265625 -18.15625 "/></g></g></g><g fill="#ffffff" fill-opacity="1"><g transform="translate(218.797146, 198.535914)"><g><path d="M 4.859375 -12.21875 L 4.859375 -3.875 C 4.859375 -3.1875 5.003906 -2.695312 5.296875 -2.40625 C 5.585938 -2.125 6.09375 -1.984375 6.8125 -1.984375 L 8.546875 -1.984375 L 8.546875 0 L 6.4375 0 C 5.125 0 4.140625 -0.300781 3.484375 -0.90625 C 2.828125 -1.507812 2.5 -2.5 2.5 -3.875 L 2.5 -12.21875 L 0.671875 -12.21875 L 0.671875 -14.15625 L 2.5 -14.15625 L 2.5 -17.71875 L 4.859375 -17.71875 L 4.859375 -14.15625 L 8.546875 -14.15625 L 8.546875 -12.21875 Z M 4.859375 -12.21875 "/></g></g></g><g fill="#ffffff" fill-opacity="1"><g transform="translate(228.198558, 198.535914)"><g/></g></g><g fill="#ffffff" fill-opacity="1"><g transform="translate(235.094653, 198.535914)"><g><path d="M 3.25 -16.453125 C 2.800781 -16.453125 2.425781 -16.601562 2.125 -16.90625 C 1.820312 -17.21875 1.671875 -17.597656 1.671875 -18.046875 C 1.671875 -18.492188 1.820312 -18.875 2.125 -19.1875 C 2.425781 -19.5 2.800781 -19.65625 3.25 -19.65625 C 3.695312 -19.65625 4.070312 -19.5 4.375 -19.1875 C 4.675781 -18.875 4.828125 -18.492188 4.828125 -18.046875 C 4.828125 -17.597656 4.675781 -17.21875 4.375 -16.90625 C 4.070312 -16.601562 3.695312 -16.453125 3.25 -16.453125 Z M 4.421875 3.078125 C 4.421875 4.328125 4.097656 5.242188 3.453125 5.828125 C 2.816406 6.421875 1.890625 6.71875 0.671875 6.71875 L -0.703125 6.71875 L -0.703125 4.71875 L 0.28125 4.71875 C 0.9375 4.71875 1.394531 4.585938 1.65625 4.328125 C 1.925781 4.078125 2.0625 3.640625 2.0625 3.015625 L 2.0625 -14.15625 L 4.421875 -14.15625 Z M 4.421875 3.078125 "/></g></g></g><g fill="#ffffff" fill-opacity="1"><g transform="translate(241.500014, 198.535914)"><g><path d="M 7 0.234375 C 5.914062 0.234375 4.941406 0.0507812 4.078125 -0.3125 C 3.222656 -0.6875 2.546875 -1.203125 2.046875 -1.859375 C 1.546875 -2.523438 1.269531 -3.289062 1.21875 -4.15625 L 3.640625 -4.15625 C 3.710938 -3.445312 4.046875 -2.867188 4.640625 -2.421875 C 5.234375 -1.972656 6.007812 -1.75 6.96875 -1.75 C 7.863281 -1.75 8.566406 -1.945312 9.078125 -2.34375 C 9.597656 -2.738281 9.859375 -3.238281 9.859375 -3.84375 C 9.859375 -4.46875 9.582031 -4.929688 9.03125 -5.234375 C 8.488281 -5.535156 7.640625 -5.832031 6.484375 -6.125 C 5.429688 -6.394531 4.570312 -6.671875 3.90625 -6.953125 C 3.25 -7.242188 2.679688 -7.664062 2.203125 -8.21875 C 1.734375 -8.78125 1.5 -9.519531 1.5 -10.4375 C 1.5 -11.15625 1.710938 -11.816406 2.140625 -12.421875 C 2.578125 -13.023438 3.191406 -13.503906 3.984375 -13.859375 C 4.773438 -14.210938 5.675781 -14.390625 6.6875 -14.390625 C 8.257812 -14.390625 9.523438 -13.992188 10.484375 -13.203125 C 11.453125 -12.410156 11.96875 -11.320312 12.03125 -9.9375 L 9.6875 -9.9375 C 9.632812 -10.675781 9.335938 -11.269531 8.796875 -11.71875 C 8.253906 -12.164062 7.523438 -12.390625 6.609375 -12.390625 C 5.765625 -12.390625 5.09375 -12.207031 4.59375 -11.84375 C 4.09375 -11.488281 3.84375 -11.019531 3.84375 -10.4375 C 3.84375 -9.96875 3.992188 -9.582031 4.296875 -9.28125 C 4.597656 -8.976562 4.976562 -8.738281 5.4375 -8.5625 C 5.894531 -8.382812 6.523438 -8.179688 7.328125 -7.953125 C 8.347656 -7.679688 9.175781 -7.410156 9.8125 -7.140625 C 10.445312 -6.867188 10.992188 -6.46875 11.453125 -5.9375 C 11.910156 -5.40625 12.148438 -4.707031 12.171875 -3.84375 C 12.171875 -3.070312 11.953125 -2.375 11.515625 -1.75 C 11.085938 -1.132812 10.476562 -0.648438 9.6875 -0.296875 C 8.90625 0.0546875 8.007812 0.234375 7 0.234375 Z M 7 0.234375 "/></g></g></g><g fill="#ffffff" fill-opacity="1"><g transform="translate(254.982263, 198.535914)"><g><path d="M 3.203125 -16.453125 C 2.753906 -16.453125 2.375 -16.601562 2.0625 -16.90625 C 1.75 -17.21875 1.59375 -17.597656 1.59375 -18.046875 C 1.59375 -18.492188 1.75 -18.875 2.0625 -19.1875 C 2.375 -19.5 2.753906 -19.65625 3.203125 -19.65625 C 3.628906 -19.65625 3.992188 -19.5 4.296875 -19.1875 C 4.597656 -18.875 4.75 -18.492188 4.75 -18.046875 C 4.75 -17.597656 4.597656 -17.21875 4.296875 -16.90625 C 3.992188 -16.601562 3.628906 -16.453125 3.203125 -16.453125 Z M 4.34375 -14.15625 L 4.34375 0 L 1.984375 0 L 1.984375 -14.15625 Z M 4.34375 -14.15625 "/></g></g></g><g fill="#ffffff" fill-opacity="1"><g transform="translate(135.35703, 234.535912)"><g><path d="M 1.109375 -7.109375 C 1.109375 -8.566406 1.398438 -9.84375 1.984375 -10.9375 C 2.566406 -12.03125 3.378906 -12.878906 4.421875 -13.484375 C 5.460938 -14.085938 6.65625 -14.390625 8 -14.390625 C 9.738281 -14.390625 11.171875 -13.96875 12.296875 -13.125 C 13.429688 -12.28125 14.179688 -11.109375 14.546875 -9.609375 L 12.015625 -9.609375 C 11.773438 -10.472656 11.304688 -11.148438 10.609375 -11.640625 C 9.910156 -12.140625 9.039062 -12.390625 8 -12.390625 C 6.65625 -12.390625 5.570312 -11.929688 4.75 -11.015625 C 3.925781 -10.097656 3.515625 -8.796875 3.515625 -7.109375 C 3.515625 -5.398438 3.925781 -4.078125 4.75 -3.140625 C 5.570312 -2.210938 6.65625 -1.75 8 -1.75 C 9.039062 -1.75 9.90625 -1.988281 10.59375 -2.46875 C 11.28125 -2.957031 11.753906 -3.648438 12.015625 -4.546875 L 14.546875 -4.546875 C 14.160156 -3.097656 13.398438 -1.9375 12.265625 -1.0625 C 11.128906 -0.195312 9.707031 0.234375 8 0.234375 C 6.65625 0.234375 5.460938 -0.0664062 4.421875 -0.671875 C 3.378906 -1.273438 2.566406 -2.125 1.984375 -3.21875 C 1.398438 -4.320312 1.109375 -5.617188 1.109375 -7.109375 Z M 11.421875 -17.53125 L 7.859375 -15.421875 L 4.265625 -17.53125 L 4.265625 -19.390625 L 7.859375 -17.203125 L 11.421875 -19.390625 Z M 11.421875 -17.53125 "/></g></g></g><g fill="#ffffff" fill-opacity="1"><g transform="translate(151.034668, 234.535912)"><g><path d="M 4.34375 -19.109375 L 4.34375 0 L 1.984375 0 L 1.984375 -19.109375 Z M 4.34375 -19.109375 "/></g></g></g><g fill="#ffffff" fill-opacity="1"><g transform="translate(157.38837, 234.535912)"><g><path d="M 8.15625 0.234375 C 6.832031 0.234375 5.628906 -0.0664062 4.546875 -0.671875 C 3.472656 -1.273438 2.628906 -2.128906 2.015625 -3.234375 C 1.410156 -4.347656 1.109375 -5.640625 1.109375 -7.109375 C 1.109375 -8.546875 1.421875 -9.820312 2.046875 -10.9375 C 2.679688 -12.050781 3.539062 -12.90625 4.625 -13.5 C 5.707031 -14.09375 6.921875 -14.390625 8.265625 -14.390625 C 9.609375 -14.390625 10.820312 -14.09375 11.90625 -13.5 C 12.988281 -12.90625 13.84375 -12.054688 14.46875 -10.953125 C 15.101562 -9.847656 15.421875 -8.566406 15.421875 -7.109375 C 15.421875 -5.640625 15.097656 -4.347656 14.453125 -3.234375 C 13.804688 -2.128906 12.929688 -1.273438 11.828125 -0.671875 C 10.722656 -0.0664062 9.5 0.234375 8.15625 0.234375 Z M 8.15625 -1.828125 C 9 -1.828125 9.789062 -2.023438 10.53125 -2.421875 C 11.28125 -2.816406 11.878906 -3.410156 12.328125 -4.203125 C 12.785156 -4.992188 13.015625 -5.960938 13.015625 -7.109375 C 13.015625 -8.242188 12.789062 -9.207031 12.34375 -10 C 11.894531 -10.789062 11.304688 -11.378906 10.578125 -11.765625 C 9.859375 -12.148438 9.078125 -12.34375 8.234375 -12.34375 C 7.378906 -12.34375 6.59375 -12.148438 5.875 -11.765625 C 5.15625 -11.378906 4.582031 -10.789062 4.15625 -10 C 3.726562 -9.207031 3.515625 -8.242188 3.515625 -7.109375 C 3.515625 -5.953125 3.722656 -4.976562 4.140625 -4.1875 C 4.566406 -3.394531 5.128906 -2.800781 5.828125 -2.40625 C 6.535156 -2.019531 7.3125 -1.828125 8.15625 -1.828125 Z M 8.15625 -1.828125 "/></g></g></g><g fill="#ffffff" fill-opacity="1"><g transform="translate(173.91833, 234.535912)"><g><path d="M 7.25 -2.171875 L 11.65625 -14.15625 L 14.15625 -14.15625 L 8.59375 0 L 5.859375 0 L 0.3125 -14.15625 L 2.84375 -14.15625 Z M 7.25 -2.171875 "/></g></g></g><g fill="#ffffff" fill-opacity="1"><g transform="translate(188.407877, 234.535912)"><g><path d="M 14.90625 -7.625 C 14.90625 -7.175781 14.878906 -6.703125 14.828125 -6.203125 L 3.515625 -6.203125 C 3.597656 -4.804688 4.070312 -3.710938 4.9375 -2.921875 C 5.8125 -2.140625 6.867188 -1.75 8.109375 -1.75 C 9.128906 -1.75 9.976562 -1.984375 10.65625 -2.453125 C 11.332031 -2.929688 11.8125 -3.566406 12.09375 -4.359375 L 14.625 -4.359375 C 14.238281 -3.003906 13.476562 -1.898438 12.34375 -1.046875 C 11.207031 -0.191406 9.796875 0.234375 8.109375 0.234375 C 6.765625 0.234375 5.5625 -0.0664062 4.5 -0.671875 C 3.445312 -1.273438 2.617188 -2.128906 2.015625 -3.234375 C 1.410156 -4.347656 1.109375 -5.640625 1.109375 -7.109375 C 1.109375 -8.566406 1.398438 -9.847656 1.984375 -10.953125 C 2.566406 -12.054688 3.390625 -12.90625 4.453125 -13.5 C 5.515625 -14.09375 6.734375 -14.390625 8.109375 -14.390625 C 9.453125 -14.390625 10.640625 -14.09375 11.671875 -13.5 C 12.703125 -12.914062 13.5 -12.113281 14.0625 -11.09375 C 14.625 -10.070312 14.90625 -8.914062 14.90625 -7.625 Z M 12.46875 -8.109375 C 12.46875 -9.003906 12.269531 -9.773438 11.875 -10.421875 C 11.476562 -11.066406 10.941406 -11.554688 10.265625 -11.890625 C 9.585938 -12.222656 8.832031 -12.390625 8 -12.390625 C 6.8125 -12.390625 5.800781 -12.007812 4.96875 -11.25 C 4.132812 -10.5 3.65625 -9.453125 3.53125 -8.109375 Z M 11.59375 -17.53125 L 8.03125 -15.421875 L 4.4375 -17.53125 L 4.4375 -19.390625 L 8.03125 -17.203125 L 11.59375 -19.390625 Z M 11.59375 -17.53125 "/></g></g></g><g fill="#ffffff" fill-opacity="1"><g transform="translate(204.421273, 234.535912)"><g><path d="M 9.890625 0 L 4.34375 -6.25 L 4.34375 0 L 1.984375 0 L 1.984375 -19.109375 L 4.34375 -19.109375 L 4.34375 -7.875 L 9.78125 -14.15625 L 13.0625 -14.15625 L 6.40625 -7.109375 L 13.09375 0 Z M 9.890625 0 "/></g></g></g><g fill="#ffffff" fill-opacity="1"><g transform="translate(217.722729, 234.535912)"><g><path d="M 14.90625 -7.625 C 14.90625 -7.175781 14.878906 -6.703125 14.828125 -6.203125 L 3.515625 -6.203125 C 3.597656 -4.804688 4.070312 -3.710938 4.9375 -2.921875 C 5.8125 -2.140625 6.867188 -1.75 8.109375 -1.75 C 9.128906 -1.75 9.976562 -1.984375 10.65625 -2.453125 C 11.332031 -2.929688 11.8125 -3.566406 12.09375 -4.359375 L 14.625 -4.359375 C 14.238281 -3.003906 13.476562 -1.898438 12.34375 -1.046875 C 11.207031 -0.191406 9.796875 0.234375 8.109375 0.234375 C 6.765625 0.234375 5.5625 -0.0664062 4.5 -0.671875 C 3.445312 -1.273438 2.617188 -2.128906 2.015625 -3.234375 C 1.410156 -4.347656 1.109375 -5.640625 1.109375 -7.109375 C 1.109375 -8.566406 1.398438 -9.847656 1.984375 -10.953125 C 2.566406 -12.054688 3.390625 -12.90625 4.453125 -13.5 C 5.515625 -14.09375 6.734375 -14.390625 8.109375 -14.390625 C 9.453125 -14.390625 10.640625 -14.09375 11.671875 -13.5 C 12.703125 -12.914062 13.5 -12.113281 14.0625 -11.09375 C 14.625 -10.070312 14.90625 -8.914062 14.90625 -7.625 Z M 12.46875 -8.109375 C 12.46875 -9.003906 12.269531 -9.773438 11.875 -10.421875 C 11.476562 -11.066406 10.941406 -11.554688 10.265625 -11.890625 C 9.585938 -12.222656 8.832031 -12.390625 8 -12.390625 C 6.8125 -12.390625 5.800781 -12.007812 4.96875 -11.25 C 4.132812 -10.5 3.65625 -9.453125 3.53125 -8.109375 Z M 12.46875 -8.109375 "/></g></g></g><g fill="#ffffff" fill-opacity="1"><g transform="translate(233.736124, 234.535912)"><g><path d="M 19.015625 -14.40625 C 20.109375 -14.40625 21.085938 -14.175781 21.953125 -13.71875 C 22.816406 -13.269531 23.5 -12.585938 24 -11.671875 C 24.5 -10.765625 24.75 -9.65625 24.75 -8.34375 L 24.75 0 L 22.421875 0 L 22.421875 -8 C 22.421875 -9.414062 22.070312 -10.5 21.375 -11.25 C 20.675781 -12 19.734375 -12.375 18.546875 -12.375 C 17.316406 -12.375 16.34375 -11.976562 15.625 -11.1875 C 14.90625 -10.40625 14.546875 -9.273438 14.546875 -7.796875 L 14.546875 0 L 12.21875 0 L 12.21875 -8 C 12.21875 -9.414062 11.867188 -10.5 11.171875 -11.25 C 10.472656 -12 9.53125 -12.375 8.34375 -12.375 C 7.125 -12.375 6.148438 -11.976562 5.421875 -11.1875 C 4.703125 -10.40625 4.34375 -9.273438 4.34375 -7.796875 L 4.34375 0 L 1.984375 0 L 1.984375 -14.15625 L 4.34375 -14.15625 L 4.34375 -12.109375 C 4.800781 -12.847656 5.421875 -13.414062 6.203125 -13.8125 C 6.992188 -14.207031 7.863281 -14.40625 8.8125 -14.40625 C 10 -14.40625 11.046875 -14.140625 11.953125 -13.609375 C 12.867188 -13.078125 13.550781 -12.296875 14 -11.265625 C 14.394531 -12.265625 15.046875 -13.035156 15.953125 -13.578125 C 16.867188 -14.128906 17.890625 -14.40625 19.015625 -14.40625 Z M 19.015625 -14.40625 "/></g></g></g><g fill="#ffffff" fill-opacity="1"><g transform="translate(260.339024, 234.535912)"><g><path d="M 2.734375 0.15625 C 2.285156 0.15625 1.90625 0 1.59375 -0.3125 C 1.289062 -0.625 1.140625 -1.003906 1.140625 -1.453125 C 1.140625 -1.898438 1.289062 -2.273438 1.59375 -2.578125 C 1.90625 -2.890625 2.285156 -3.046875 2.734375 -3.046875 C 3.171875 -3.046875 3.535156 -2.890625 3.828125 -2.578125 C 4.128906 -2.273438 4.28125 -1.898438 4.28125 -1.453125 C 4.28125 -1.003906 4.128906 -0.625 3.828125 -0.3125 C 3.535156 0 3.171875 0.15625 2.734375 0.15625 Z M 2.734375 0.15625 "/></g></g></g><path fill="#ffffff" d="M 320.96875 245.761719 L 306.289062 245.761719 C 303.265625 245.761719 300.8125 248.21875 300.8125 251.25 L 300.8125 265.964844 C 300.8125 268.992188 303.265625 271.453125 306.289062 271.453125 L 316.992188 271.453125 C 316.992188 279.027344 311.769531 285.375 304.734375 287.085938 C 302.628906 287.601562 301.15625 289.503906 301.15625 291.679688 C 301.15625 294.695312 303.945312 297.019531 306.871094 296.320312 C 318.097656 293.636719 326.445312 283.523438 326.445312 271.453125 L 326.445312 251.25 C 326.445312 248.21875 323.992188 245.761719 320.96875 245.761719 " fill-opacity="1" fill-rule="nonzero"/><g clip-path="url(#id4)"><path fill="#ffffff" d="M 354.917969 245.761719 L 340.238281 245.761719 C 337.210938 245.761719 334.761719 248.21875 334.761719 251.25 L 334.761719 265.964844 C 334.761719 268.992188 337.210938 271.453125 340.238281 271.453125 L 350.9375 271.453125 C 350.9375 279.011719 345.738281 285.347656 338.726562 287.074219 C 336.625 287.59375 335.160156 289.496094 335.160156 291.660156 L 335.160156 291.664062 C 335.160156 294.679688 337.957031 297.007812 340.882812 296.300781 C 352.074219 293.59375 360.394531 283.5 360.394531 271.453125 L 360.394531 251.25 C 360.394531 248.21875 357.941406 245.761719 354.917969 245.761719 " fill-opacity="1" fill-rule="nonzero"/></g><g clip-path="url(#id5)"><path fill="#ffffff" d="M 327.988281 132.757812 L 333.214844 132.757812 L 333.214844 234.257812 L 327.988281 234.257812 L 327.988281 132.757812 " fill-opacity="1" fill-rule="nonzero"/></g><g clip-path="url(#id6)"><path fill="#ffffff" d="M 187.9375 263.710938 L 289.203125 263.710938 L 289.203125 268.949219 L 187.9375 268.949219 L 187.9375 263.710938 " fill-opacity="1" fill-rule="nonzero"/></g></svg>